<svg xmlns="http://www.w3.org/2000/svg" viewBox="0 0 96 96" width="96" height="96" role="img" aria-label="empentIA pilar · Gestión documental"><style>
  .nv-halo,.sonar,.fl,.bar{transform-box:fill-box;transform-origin:center}
  .nv-halo{animation:halo 2.4s infinite ease-out}
  @keyframes halo{0%{transform:scale(.7);opacity:.75}80%,100%{transform:scale(2.3);opacity:0}}
  .sonar{animation:sonar 2s infinite ease-out}.sonar.s2{animation-delay:.6s}
  @keyframes sonar{0%{transform:scale(.5);opacity:.85}100%{transform:scale(1.3);opacity:0}}
  .ln{stroke-dasharray:13;animation:draw 2.4s infinite}.ln.l2{animation-delay:.3s}.ln.l3{animation-delay:.6s}
  @keyframes draw{0%{stroke-dashoffset:13;opacity:.3}30%{stroke-dashoffset:0;opacity:1}80%{opacity:1}100%{stroke-dashoffset:0;opacity:.3}}
  .fl{animation:flow 1.8s infinite}.fl.f2{animation-delay:.3s}.fl.f3{animation-delay:.6s}
  @keyframes flow{0%,100%{opacity:.2;transform:scale(.55)}45%{opacity:1;transform:scale(1)}}
  .bar{transform-origin:bottom;animation:grow 2.2s infinite ease-in-out}
  .bar.b2{animation-delay:.18s}.bar.b3{animation-delay:.36s}.bar.b4{animation-delay:.54s}
  @keyframes grow{0%,100%{transform:scaleY(.5)}50%{transform:scaleY(1)}}
  .bl{animation:blink 1.8s infinite}.bl.k2{animation-delay:.45s}.bl.k3{animation-delay:.9s}
  @keyframes blink{0%,100%{opacity:.32}50%{opacity:1}}
  @media (prefers-reduced-motion: reduce){*{animation:none!important}.ln{stroke-dashoffset:0}.bar{transform:scaleY(1)}.fl,.sonar{opacity:.6}}
</style><defs><linearGradient id="bg" x1="0" y1="0" x2="1" y2="1"><stop offset="0" stop-color="#00C088"/><stop offset="1" stop-color="#00D99E"/></linearGradient></defs><rect x="0" y="0" width="96" height="96" rx="22" fill="url(#bg)"/><g transform="translate(48,48) scale(2.3) translate(-12,-12)"><path d="M7 2.6h6.6L18 7V20a1.6 1.6 0 0 1-1.6 1.6H7A1.6 1.6 0 0 1 5.4 20V4.2A1.6 1.6 0 0 1 7 2.6z" fill="none" stroke="#FAFAF7" stroke-width="1.9" stroke-linejoin="round"/><path d="M13.4 2.7V7h4.3" fill="none" stroke="#FAFAF7" stroke-width="1.9" stroke-linejoin="round"/><line class="ln l1" x1="8" y1="11.4" x2="15" y2="11.4" stroke="#FAFAF7" stroke-width="1.6" stroke-linecap="round"/><line class="ln l2" x1="8" y1="14.3" x2="15" y2="14.3" stroke="#FAFAF7" stroke-width="1.6" stroke-linecap="round"/><line class="ln l3" x1="8" y1="17.2" x2="12.6" y2="17.2" stroke="#FAFAF7" stroke-width="1.6" stroke-linecap="round"/><circle class="nv-halo" cx="17.7" cy="7" r="2" fill="none" stroke="#FAFAF7" stroke-width="1.4"/><circle cx="17.7" cy="7" r="2" fill="none" stroke="#FAFAF7" stroke-width="1.8"/></g></svg>
